<?xml version="1.0" encoding="UTF-8" standalone="no"?>
<svg
   version="1.1"
   id="Layer_1"
   x="0px"
   y="0px"
   width="1024"
   viewBox="0 0 96 96"
   enable-background="new 0 0 96 96"
   xml:space="preserve"
   height="1024"
   xmlns="http://www.w3.org/2000/svg"
   xmlns:svg="http://www.w3.org/2000/svg"><defs
   id="defs22" />

<path
   fill="#2196f3"
   opacity="1"
   stroke="none"
   d="m 77.083435,61.116673 c 1.059097,8.166065 -4.178261,12.551143 -12.502396,12.054218 -11.437511,-0.682778 -22.949508,-0.0204 -34.42271,-0.26165 -3.487057,-0.07333 -5.905451,0.962021 -8.170918,3.49617 -3.194227,3.573051 -6.701446,6.866295 -10.660467,10.871658 -0.142337,-2.137199 -0.313239,-3.521713 -0.314781,-4.906418 -0.01853,-16.635154 -0.01804,-33.270347 -0.0088,-49.905521 0.0034,-6.023005 3.093057,-9.228476 9.956132,-9.491516 14.997111,7.4e-5 29.120432,-0.03398 43.243109,0.04623 9.193665,0.05222 12.682274,3.54258 12.78083,12.676575 0.09142,8.472789 0.07108,16.946785 0.09995,25.42025 z"
   id="path15" />
<path
   fill="#1565c0"
   opacity="1"
   stroke="none"
   d="m 77.480484,61.070648 c -0.425926,-8.42744 -0.405586,-16.901436 -0.497002,-25.374225 -0.09856,-9.133995 -3.587165,-12.62436 -12.78083,-12.676575 -14.122677,-0.08021 -28.245998,-0.04616 -42.844337,-0.08187 -1.20098,-9.174123 3.782264,-12.377649 11.91209,-12.087473 14.77494,0.527358 29.582191,0.138534 44.375934,0.155525 5.749527,0.0066 9.340302,3.668869 9.348946,9.509886 0.01525,10.305744 0.0156,20.611545 -2.06e-4,30.917286 -0.0094,6.117927 -3.023842,9.267269 -9.514595,9.637443 z"
   id="path17" />
<text
   xml:space="preserve"
   style="font-size:15.9412px;fill:#ffffff;stroke-width:1.32844"
   x="26.332752"
   y="61.957378"
   id="text400"
   transform="scale(1.0134849,0.98669453)"><tspan
     id="tspan398"
     x="26.332752"
     y="61.957378"
     style="stroke-width:1.32844;font-family:Arial">z</tspan></text><text
   xml:space="preserve"
   style="font-size:20.0703px;fill:#ffffff;stroke-width:1.67253"
   x="37.517208"
   y="54.492775"
   id="text404"
   transform="scale(1.0120605,0.98808323)"><tspan
     id="tspan402"
     x="37.517208"
     y="54.492775"
     style="stroke-width:1.67253;font-family:Arial">z</tspan></text><text
   xml:space="preserve"
   style="font-size:24.3466px;fill:#ffffff;stroke-width:2.02888"
   x="52.783207"
   y="44.526482"
   id="text408"
   transform="scale(0.95759098,1.0442872)"><tspan
     id="tspan406"
     x="52.783207"
     y="44.526482"
     style="stroke-width:2.02888;font-family:Arial">z</tspan></text><path
   style="fill:none;stroke-width:0.143818"
   d="m 47.819594,46.769106 v -0.834761 l 3.667368,-5.045131 c 2.017052,-2.774822 3.667367,-5.084987 3.667367,-5.1337 0,-0.04871 -1.617956,-0.08857 -3.595458,-0.08857 h -3.595458 v -0.934819 -0.934819 h 4.889823 4.889823 v 0.792224 0.792224 l -3.74037,5.140282 -3.740369,5.140282 3.812278,0.0383 3.812279,0.0383 v 0.93247 0.93247 h -5.033641 -5.033642 z"
   id="path537" /></svg>
